<?xml version="1.0" encoding="UTF-8" standalone="no"?>
<svg
   xmlns:dc="http://purl.org/dc/elements/1.1/"
   xmlns:cc="http://creativecommons.org/ns#"
   xmlns:rdf="http://www.w3.org/1999/02/22-rdf-syntax-ns#"
   xmlns:svg="http://www.w3.org/2000/svg"
   xmlns="http://www.w3.org/2000/svg"
   xmlns:sodipodi="http://sodipodi.sourceforge.net/DTD/sodipodi-0.dtd"
   xmlns:inkscape="http://www.inkscape.org/namespaces/inkscape"
   sodipodi:docname="i am cools.svg"
   inkscape:version="1.0 (4035a4fb49, 2020-05-01)"
   inkscape:export-ydpi="440.39999"
   inkscape:export-xdpi="440.39999"
   inkscape:export-filename="C:\Users\fores\OneDrive\unity\Delaunay Walls\Assets\UI\i luv u.png"
   id="svg8"
   version="1.1"
   viewBox="0 0 210 297"
   height="297mm"
   width="210mm">
  <defs
     id="defs2">
    <inkscape:perspective
       id="perspective833"
       inkscape:persp3d-origin="105 : 99 : 1"
       inkscape:vp_z="210 : 148.5 : 1"
       inkscape:vp_y="0 : 1000 : 0"
       inkscape:vp_x="0 : 148.5 : 1"
       sodipodi:type="inkscape:persp3d" />
  </defs>
  <sodipodi:namedview
     inkscape:window-maximized="1"
     inkscape:window-y="-8"
     inkscape:window-x="1912"
     inkscape:window-height="1027"
     inkscape:window-width="1920"
     showgrid="false"
     inkscape:document-rotation="0"
     inkscape:current-layer="layer1"
     inkscape:document-units="mm"
     inkscape:cy="348.92159"
     inkscape:cx="216.88625"
     inkscape:zoom="3.959798"
     inkscape:pageshadow="2"
     inkscape:pageopacity="0.0"
     borderopacity="1.0"
     bordercolor="#666666"
     pagecolor="#ffffff"
     id="base" />
  <metadata
     id="metadata5">
    <rdf:RDF>
      <cc:Work
         rdf:about="">
        <dc:format>image/svg+xml</dc:format>
        <dc:type
           rdf:resource="http://purl.org/dc/dcmitype/StillImage" />
        <dc:title></dc:title>
      </cc:Work>
    </rdf:RDF>
  </metadata>
  <g
     id="layer1"
     inkscape:groupmode="layer"
     inkscape:label="Layer 1">
    <text
       id="text875"
       y="132.29842"
       x="116.79678"
       style="font-style:normal;font-weight:normal;font-size:10.5833px;line-height:1.25;font-family:sans-serif;fill:#000000;fill-opacity:1;stroke:none;stroke-width:0.264583"
       xml:space="preserve"><tspan
         style="stroke-width:0.264583"
         y="132.29842"
         x="116.79678"
         id="tspan873"
         sodipodi:role="line" /></text>
    <rect
       ry="2.5406947"
       rx="2.6797109"
       y="89.936195"
       x="38.620445"
       height="23.118814"
       width="41.56041"
       id="rect877"
       style="fill:#0000d7;fill-opacity:1;fill-rule:evenodd;stroke:#000000;stroke-width:0.865;stroke-linejoin:round;stroke-opacity:1" />
    <text
       transform="scale(0.83820954,1.1930191)"
       id="text881"
       y="83.82048"
       x="47.498024"
       style="font-style:normal;font-weight:normal;font-size:9.99637px;line-height:0.95;font-family:sans-serif;fill:#000000;fill-opacity:1;stroke:none;stroke-width:0.249909"
       xml:space="preserve"><tspan
         style="stroke-width:0.249909"
         y="83.82048"
         x="47.498024"
         id="tspan879"
         sodipodi:role="line">I am </tspan><tspan
         id="tspan883"
         style="stroke-width:0.249909"
         y="93.317032"
         x="47.498024"
         sodipodi:role="line">COOOOls</tspan></text>
    <path
       sodipodi:nodetypes="scscs"
       id="path885"
       d="m 63.505461,93.847265 c 2.114698,-4.528346 4.765691,-0.452084 4.765691,-0.452084 0,0 2.771567,-4.025932 4.856011,-0.08245 1.33955,2.534243 -4.677217,7.216279 -4.677217,7.216279 0,0 -6.116865,-4.171245 -4.944485,-6.681742 z"
       style="fill:#ff0000;stroke:#000000;stroke-width:0.264583px;stroke-linecap:butt;stroke-linejoin:miter;stroke-opacity:1" />
    <path
       style="fill:#0000ff;stroke:#000000;stroke-width:0.180734px;stroke-linecap:butt;stroke-linejoin:miter;stroke-opacity:1"
       d="m 65.037235,94.551968 c 1.444532,-3.093272 3.255401,-0.308815 3.255401,-0.308815 0,0 1.893233,-2.750078 3.317097,-0.05632 0.915035,1.731118 -3.194964,4.929374 -3.194964,4.929374 0,0 -4.178375,-2.849339 -3.377534,-4.564237 z"
       id="path887"
       sodipodi:nodetypes="scscs" />
    <path
       sodipodi:nodetypes="scscs"
       id="path889"
       d="m 66.330001,95.146713 c 0.878934,-1.882118 1.980767,-0.1879 1.980767,-0.1879 0,0 1.151948,-1.6733 2.018305,-0.03427 0.556759,1.053308 -1.943993,2.999304 -1.943993,2.999304 0,0 -2.542355,-1.733696 -2.055079,-2.777135 z"
       style="fill:#ff0000;stroke:#000000;stroke-width:0.109969px;stroke-linecap:butt;stroke-linejoin:miter;stroke-opacity:1" />
    <path
       style="fill:#0000ff;stroke:#000000;stroke-width:0.0529404px;stroke-linecap:butt;stroke-linejoin:miter;stroke-opacity:1"
       d="m 67.371815,95.626005 c 0.423129,-0.906074 0.953565,-0.09046 0.953565,-0.09046 0,0 0.554561,-0.805546 0.971636,-0.0165 0.26803,0.507075 -0.935862,1.443901 -0.935862,1.443901 0,0 -1.223919,-0.834622 -0.989339,-1.336946 z"
       id="path891"
       sodipodi:nodetypes="scscs" />
    <path
       sodipodi:nodetypes="scscs"
       id="path893"
       d="m 67.955862,95.894697 c 0.167603,-0.358898 0.377709,-0.03583 0.377709,-0.03583 0,0 0.219663,-0.319079 0.384867,-0.0065 0.106168,0.200853 -0.370696,0.571932 -0.370696,0.571932 0,0 -0.484797,-0.330595 -0.39188,-0.529567 z"
       style="fill:#ff0000;stroke:#000000;stroke-width:0.0209698px;stroke-linecap:butt;stroke-linejoin:miter;stroke-opacity:1" />
  </g>
</svg>
